# xmcd
#
# Track frame offsets: 
#        150
#        13285
#        24790
#        36745
#        48282
#        59305
#        70940
#        84472
#        96250
#        107047
#        117940
#        128582
#        139305
#        151270
#        163252
#        175547
#        186305
#        198512
#        209472
#        219882
#        232970
#
# Disc length: 3286 seconds
#
# Revision: 5
# Processed by: cddbd v1.5.2PL0 Copyright (c) Steve Scherf et al.
# Submitted via: ExactAudioCopy v0.95b4
#
DISCID=260cd415
DTITLE=Robert Johnson - Steady Rollin' Man [CD2]
DYEAR=1999
DGENRE=Delta Blues
TTITLE0=Preaching Blues (Up Jumped the Devil)
TTITLE1=Me and the Devil (alt)
TTITLE2=Steady Rollin' Man
TTITLE3=Crossroad Blues (alt)
TTITLE4=From Four 'til Late
TTITLE5=Kindhearted Woman (alt)
TTITLE6=I Believe I'll Dust My Broom
TTITLE7=Phonograph Blues (alt)
TTITLE8=Milkcow's Calf Blues (alt)
TTITLE9=Ramblin' on My Mind (alt)
TTITLE10=Malted Milk
TTITLE11=Drunken Hearted Man (alt)
TTITLE12=Hellhound on My Trail
TTITLE13=Come on in My Kitchen (alt)
TTITLE14=Traveling Riverside Blues (alt)
TTITLE15=Love in Vain (alt)
TTITLE16=Last Fair Deal Gone Down
TTITLE17=Stop Breaking Down (alt)
TTITLE18=Little Queen of Spades (alt)
TTITLE19=When You Got a Good Friend (alt)
TTITLE20=Sweet Home Chicago
EXTD=
EXTT0=
EXTT1=
EXTT2=
EXTT3=
EXTT4=
EXTT5=
EXTT6=
EXTT7=
EXTT8=
EXTT9=
EXTT10=
EXTT11=
EXTT12=
EXTT13=
EXTT14=
EXTT15=
EXTT16=
EXTT17=
EXTT18=
EXTT19=
EXTT20=
PLAYORDER=
